<?xml version="1.0" encoding="UTF-8" standalone="no"?>
<!-- Created with Inkscape (http://www.inkscape.org/) -->

<svg
   width="205mm"
   height="233mm"
   viewBox="0 0 205 233"
   version="1.1"
   id="svg5"
   xml:space="preserve"
   inkscape:version="1.2.2 (b0a8486541, 2022-12-01)"
   sodipodi:docname="abalar-logo.svg"
   xmlns:inkscape="http://www.inkscape.org/namespaces/inkscape"
   xmlns:sodipodi="http://sodipodi.sourceforge.net/DTD/sodipodi-0.dtd"
   xmlns="http://www.w3.org/2000/svg"
   xmlns:svg="http://www.w3.org/2000/svg"><sodipodi:namedview
     id="namedview7"
     pagecolor="#ffffff"
     bordercolor="#000000"
     borderopacity="0.25"
     inkscape:showpageshadow="2"
     inkscape:pageopacity="0.0"
     inkscape:pagecheckerboard="0"
     inkscape:deskcolor="#d1d1d1"
     inkscape:document-units="mm"
     showgrid="false"
     inkscape:zoom="0.47037037"
     inkscape:cx="416.69291"
     inkscape:cy="574.01575"
     inkscape:window-width="1366"
     inkscape:window-height="713"
     inkscape:window-x="0"
     inkscape:window-y="0"
     inkscape:window-maximized="1"
     inkscape:current-layer="layer1" /><defs
     id="defs2" /><g
     inkscape:label="Capa 1"
     inkscape:groupmode="layer"
     id="layer1"><path
       style="fill:#000000;stroke-width:0.709135"
       d="m 111.94477,225.24678 c -1.36508,-0.1509 -10.30018,-1.52042 -19.855778,-3.04328 -9.5556,-1.52284 -21.311676,-3.27722 -26.124608,-3.89862 -33.310611,-4.30067 -53.855207,-23.85354 -55.855956,-53.15973 -0.4456707,-6.52799 -0.2823907,-8.08267 3.584496,-34.12933 0.98947,-6.66496 2.286755,-16.55738 2.882847,-21.9832 1.366265,-12.436223 2.487882,-16.948953 5.976942,-24.047823 6.506106,-13.23736 18.827986,-22.27761 37.639459,-27.61515 9.537104,-2.70603 14.533374,-3.35338 31.89682,-4.13283 28.041528,-1.25876 36.839408,-1.09693 43.611818,0.80215 8.80428,2.46884 15.33622,6.03645 21.37146,11.67269 6.20951,5.79901 9.95599,11.04708 13.91055,19.48586 2.16565,4.62141 4.14709,7.44503 8.37173,11.93007 9.47039,10.054143 14.274,18.316713 17.06476,29.352693 1.25645,4.96855 1.45173,7.31889 1.14688,13.80291 -0.64976,13.82049 -5.47722,25.31502 -16.26127,38.71923 -7.63052,9.48446 -32.79001,35.58337 -37.55336,38.95548 -8.26252,5.84932 -20.16297,8.57645 -31.80679,7.28888 z m 7.64272,-6.27558 c 2.32057,-1.6254 1.92819,-2.44176 -1.17366,-2.44176 -3.09188,0 -4.82923,1.35615 -3.4738,2.71158 1.14063,1.14064 2.76869,1.04611 4.64746,-0.26982 z M 76.769368,197.80228 c -0.210797,-0.54933 -1.237894,-1.31361 -2.282437,-1.69841 -14.733113,-5.42751 -21.712452,-8.93859 -29.20088,-14.69005 -4.453774,-3.42071 -7.42399,-6.55571 -17.326507,-18.28769 -4.348162,-5.15147 -7.469246,-8.26484 -8.155057,-8.13485 -1.432367,0.27145 -2.753182,5.33509 -2.826223,10.83496 -0.197798,14.89201 17.856683,27.6178 45.234495,31.88379 8.64861,1.34763 15.05392,1.38821 14.556609,0.0922 z m 69.069472,-13.3775 c 1.20475,-1.47379 4.52455,-12.99749 4.2777,-14.84886 l -0.23291,-1.74751 -8.11228,3.96288 c -4.78064,2.33534 -8.61091,4.69096 -9.32639,5.7357 -1.74872,2.55351 -2.23928,5.39554 -1.12343,6.50822 1.28159,1.27789 13.52269,1.60638 14.51742,0.38957 z M 69.396658,171.46232 c 0,-0.60537 -2.234628,-3.4616 -4.965843,-6.34721 -6.425633,-6.78881 -11.296251,-14.45779 -14.939612,-23.52302 -3.170906,-7.8897 -4.172199,-8.81839 -7.597863,-7.04691 -3.731121,1.92945 -9.371728,6.82914 -9.371728,8.14072 0,3.64848 9.528908,14.60389 17.353679,19.95158 4.234404,2.89389 17.387506,9.88891 18.634945,9.91035 0.487533,0.008 0.886422,-0.4801 0.886422,-1.08551 z M 178.1569,168.47637 c 2.81222,-2.26361 7.3591,-7.79514 9.00431,-10.95421 2.10618,-4.0442 1.60498,-14.03367 -0.70412,-14.03367 -0.95645,0 -6.53493,3.82419 -8.0981,5.55147 -0.86193,0.95243 -1.84996,4.64306 -3.00209,11.2137 -0.94453,5.38674 -1.71734,10.23953 -1.71734,10.78399 0,1.07108 0.0161,1.06208 4.51734,-2.56128 z m -73.2878,-3.97567 c 12.55718,-2.755 13.48287,-3.43585 15.17027,-11.15793 2.07292,-9.48629 3.31816,-19.27563 3.74265,-29.42253 0.41503,-9.92118 0.40576,-10.00355 -1.25797,-11.16887 -4.27462,-2.99407 -27.497757,-0.0772 -44.454539,5.5836 -8.93232,2.98194 -17.177374,6.74185 -18.600751,8.48232 -2.079938,2.54332 -0.378586,17.01394 2.861595,24.33892 3.248834,7.34452 9.223065,12.02144 17.88144,13.99843 5.283202,1.2063 17.676493,0.87763 24.657305,-0.65394 z m 47.62968,-21.62694 c 1.96938,-2.24298 2.12572,-2.77878 1.7461,-5.984 -0.6879,-5.80828 -6.3458,-16.09362 -8.85299,-16.09362 -0.36252,0 -0.879,2.63268 -1.14771,5.85037 -0.26872,3.21771 -1.0668,9.20103 -1.77352,13.29629 -1.15481,6.69208 -1.17427,7.53396 -0.1919,8.31542 0.88967,0.70784 1.74036,0.51712 4.57499,-1.02568 1.91516,-1.04236 4.45548,-3.00381 5.64514,-4.35878 z m 3.30356,-31.60065 c -0.19914,-5.41767 -0.52677,-7.06607 -1.72683,-8.6869 -1.66442,-2.24806 -7.01386,-5.503433 -8.02089,-4.881063 -1.32251,0.81738 -1.61286,5.822353 -0.49321,8.502043 1.08637,2.60006 8.74409,11.68526 9.88637,11.72929 0.33017,0.0134 0.48972,-2.98579 0.35456,-6.66337 z M 33.359873,103.18776 c 2.996204,-4.551273 8.015481,-11.466153 11.153944,-15.366403 3.138471,-3.90025 5.713028,-7.31348 5.72124,-7.58499 0.026,-0.8553 -7.252774,1.59828 -11.657563,3.92965 -5.620827,2.975 -10.99701,8.36543 -13.533892,13.56973 -2.602187,5.338313 -3.186288,12.144513 -1.403338,16.352263 l 1.189801,2.80788 1.541087,-2.71654 c 0.847594,-1.4941 3.992518,-6.4403 6.988721,-10.99159 z m 37.336798,-2.90635 c 14.238074,-4.785153 23.667313,-6.534893 35.220469,-6.535723 5.07029,-3.5e-4 10.78919,0.31088 12.70859,0.6916 5.13992,1.01957 5.63037,0.63773 5.08972,-3.9624 -0.2498,-2.12653 -0.7634,-4.44372 -1.14104,-5.14933 -0.40343,-0.75384 -3.10249,-2.08035 -6.54454,-3.21643 -3.22186,-1.06345 -8.72991,-3.18112 -12.24013,-4.70599 -11.579118,-5.03009 -15.465626,-4.47245 -25.188738,3.61411 -13.657752,11.35889 -23.190929,22.759643 -19.03136,22.759643 0.39947,0 5.406634,-1.57295 11.127029,-3.49548 z M 83.562532,47.586605 C 83.524821,42.401738 78.616496,33.667378 71.561485,26.230661 63.985101,18.244397 60.753437,17.720365 40.67667,21.222659 c -6.101984,1.06444 -8.017904,1.120617 -13.73243,0.402646 -3.652586,-0.458903 -6.979764,-1.043695 -7.393715,-1.299547 -0.88464,-0.546733 8.232799,-3.159309 18.289604,-5.240831 8.889884,-1.839982 20.12961,-1.97367 26.599826,-0.31637 12.662401,3.243387 24.292712,12.217598 29.724236,22.935894 2.329349,4.596646 1.892101,5.429973 -4.734458,9.023206 l -5.850367,3.17231 -0.01689,-2.313362 z M 109.89072,32.628587 c 12.70714,-12.115805 29.1847,-20.787878 46.81903,-24.6406606 6.09812,-1.332326 22.58741,-3.140575 24.08537,-2.641254 0.80626,0.268743 -15.47243,14.5706506 -18.27781,16.0582936 -0.85193,0.451721 -3.40482,0.822258 -5.6731,0.823357 -14.71559,0.008 -32.27858,4.830868 -40.54473,11.135763 -2.58353,1.970562 -8.56645,4.481183 -10.56724,4.434333 -0.80723,-0.01876 0.62952,-1.805086 4.15848,-5.169832 z"
       id="path179"
       sodipodi:nodetypes="ssssssssssssssssssssssssssssssscscsssccsssssscssssssssssssssssscssssssccsssscssscssscssssscsssssssssssssssccssssscscs" /><path
       d="m 79.020214,140.26983 v -13.96292 l 1.59556,1.17495 c 0.87755,0.64625 3.98888,2.73166 6.91407,4.63427 9.211493,5.99137 10.712643,7.14134 10.265873,7.86421 -0.41041,0.66405 -11.458423,9.145 -16.470813,12.6437 l -2.30469,1.60871 z"
       style="fill:#000000;stroke-width:0.709135"
       id="path220" /><path
       d="M 95.076289,140.19582 V 126.2329 l 1.59556,1.17495 c 0.877546,0.64625 3.988861,2.73166 6.914061,4.63427 9.2115,5.99137 10.71265,7.14134 10.26588,7.86421 -0.41041,0.66405 -11.45844,9.145 -16.470815,12.6437 l -2.304686,1.60871 z"
       style="fill:#000000;stroke-width:0.709135"
       id="path220-3" /></g></svg>
